<mxfile host="app.diagrams.net" agent="Mozilla/5.0 (Windows NT 10.0; Win64; x64) AppleWebKit/537.36 (KHTML, like Gecko) Chrome/131.0.0.0 Safari/537.36" version="25.0.3">
  <diagram name="Страница — 1" id="ObrJTJhlD1_BNXab8cbZ">
    <mxGraphModel dx="1434" dy="780" grid="1" gridSize="10" guides="1" tooltips="1" connect="1" arrows="1" fold="1" page="1" pageScale="1" pageWidth="827" pageHeight="1169" math="0" shadow="0">
      <root>
        <mxCell id="0" />
        <mxCell id="1" parent="0" />
        <mxCell id="B3hCheoWp8zwCmhWulEi-178" style="edgeStyle=orthogonalEdgeStyle;rounded=0;orthogonalLoop=1;jettySize=auto;html=1;" edge="1" parent="1" source="B3hCheoWp8zwCmhWulEi-179" target="B3hCheoWp8zwCmhWulEi-181">
          <mxGeometry relative="1" as="geometry">
            <mxPoint x="396" y="120" as="targetPoint" />
          </mxGeometry>
        </mxCell>
        <mxCell id="B3hCheoWp8zwCmhWulEi-179" value="Начало&lt;div&gt;WriteDataToFile&lt;/div&gt;" style="rounded=1;whiteSpace=wrap;html=1;" vertex="1" parent="1">
          <mxGeometry x="321" y="10" width="150" height="40" as="geometry" />
        </mxCell>
        <mxCell id="B3hCheoWp8zwCmhWulEi-180" style="edgeStyle=orthogonalEdgeStyle;rounded=0;orthogonalLoop=1;jettySize=auto;html=1;" edge="1" parent="1" source="B3hCheoWp8zwCmhWulEi-181" target="B3hCheoWp8zwCmhWulEi-183">
          <mxGeometry relative="1" as="geometry">
            <mxPoint x="396" y="200" as="targetPoint" />
          </mxGeometry>
        </mxCell>
        <mxCell id="B3hCheoWp8zwCmhWulEi-181" value="Ввести filename,arr" style="shape=parallelogram;perimeter=parallelogramPerimeter;whiteSpace=wrap;html=1;fixedSize=1;" vertex="1" parent="1">
          <mxGeometry x="321" y="100" width="150" height="50" as="geometry" />
        </mxCell>
        <mxCell id="B3hCheoWp8zwCmhWulEi-182" style="edgeStyle=orthogonalEdgeStyle;rounded=0;orthogonalLoop=1;jettySize=auto;html=1;" edge="1" parent="1" source="B3hCheoWp8zwCmhWulEi-183" target="B3hCheoWp8zwCmhWulEi-185">
          <mxGeometry relative="1" as="geometry">
            <mxPoint x="396" y="290" as="targetPoint" />
          </mxGeometry>
        </mxCell>
        <mxCell id="B3hCheoWp8zwCmhWulEi-183" value="&lt;div&gt;ЗадатьФайл(f, fileName)&lt;/div&gt;&lt;div&gt;&amp;nbsp; Перезаписать(f)&lt;/div&gt;" style="rounded=0;whiteSpace=wrap;html=1;" vertex="1" parent="1">
          <mxGeometry x="321" y="190" width="150" height="50" as="geometry" />
        </mxCell>
        <mxCell id="B3hCheoWp8zwCmhWulEi-184" style="edgeStyle=orthogonalEdgeStyle;rounded=0;orthogonalLoop=1;jettySize=auto;html=1;" edge="1" parent="1" source="B3hCheoWp8zwCmhWulEi-185" target="B3hCheoWp8zwCmhWulEi-187">
          <mxGeometry relative="1" as="geometry">
            <mxPoint x="396" y="360" as="targetPoint" />
          </mxGeometry>
        </mxCell>
        <mxCell id="B3hCheoWp8zwCmhWulEi-185" value="i&amp;nbsp; = 0" style="rounded=0;whiteSpace=wrap;html=1;" vertex="1" parent="1">
          <mxGeometry x="321" y="280" width="150" height="40" as="geometry" />
        </mxCell>
        <mxCell id="B3hCheoWp8zwCmhWulEi-186" style="edgeStyle=orthogonalEdgeStyle;rounded=0;orthogonalLoop=1;jettySize=auto;html=1;" edge="1" parent="1" source="B3hCheoWp8zwCmhWulEi-187">
          <mxGeometry relative="1" as="geometry">
            <mxPoint x="396" y="460" as="targetPoint" />
          </mxGeometry>
        </mxCell>
        <mxCell id="B3hCheoWp8zwCmhWulEi-187" value="Цикл 1&lt;div&gt;(i = НаибольшийЭлемент(arr)+1)&lt;/div&gt;" style="shape=loopLimit;whiteSpace=wrap;html=1;direction=east;" vertex="1" parent="1">
          <mxGeometry x="301" y="360" width="190" height="60" as="geometry" />
        </mxCell>
        <mxCell id="B3hCheoWp8zwCmhWulEi-200" style="edgeStyle=orthogonalEdgeStyle;rounded=0;orthogonalLoop=1;jettySize=auto;html=1;entryX=0.5;entryY=0;entryDx=0;entryDy=0;" edge="1" parent="1" source="B3hCheoWp8zwCmhWulEi-190" target="B3hCheoWp8zwCmhWulEi-193">
          <mxGeometry relative="1" as="geometry" />
        </mxCell>
        <mxCell id="B3hCheoWp8zwCmhWulEi-190" value="Закрыть(f)" style="rounded=0;whiteSpace=wrap;html=1;" vertex="1" parent="1">
          <mxGeometry x="301" y="680" width="190" height="35" as="geometry" />
        </mxCell>
        <mxCell id="B3hCheoWp8zwCmhWulEi-198" style="edgeStyle=orthogonalEdgeStyle;rounded=0;orthogonalLoop=1;jettySize=auto;html=1;entryX=0.5;entryY=0;entryDx=0;entryDy=0;" edge="1" parent="1" source="B3hCheoWp8zwCmhWulEi-192" target="B3hCheoWp8zwCmhWulEi-190">
          <mxGeometry relative="1" as="geometry" />
        </mxCell>
        <mxCell id="B3hCheoWp8zwCmhWulEi-192" value="Цикл 1" style="shape=loopLimit;whiteSpace=wrap;html=1;direction=west;" vertex="1" parent="1">
          <mxGeometry x="300" y="610" width="190" height="40" as="geometry" />
        </mxCell>
        <mxCell id="B3hCheoWp8zwCmhWulEi-193" value="&lt;div&gt;Конец&lt;/div&gt;&lt;div&gt;WriteDataToFile&lt;/div&gt;" style="rounded=1;whiteSpace=wrap;html=1;" vertex="1" parent="1">
          <mxGeometry x="300" y="740" width="190" height="40" as="geometry" />
        </mxCell>
        <mxCell id="B3hCheoWp8zwCmhWulEi-195" style="edgeStyle=orthogonalEdgeStyle;rounded=0;orthogonalLoop=1;jettySize=auto;html=1;" edge="1" parent="1" source="B3hCheoWp8zwCmhWulEi-194" target="B3hCheoWp8zwCmhWulEi-196">
          <mxGeometry relative="1" as="geometry">
            <mxPoint x="396" y="550" as="targetPoint" />
          </mxGeometry>
        </mxCell>
        <mxCell id="B3hCheoWp8zwCmhWulEi-194" value="ЗаписатьВФайл(f, arr[i])" style="shape=parallelogram;perimeter=parallelogramPerimeter;whiteSpace=wrap;html=1;fixedSize=1;" vertex="1" parent="1">
          <mxGeometry x="301" y="460" width="190" height="60" as="geometry" />
        </mxCell>
        <mxCell id="B3hCheoWp8zwCmhWulEi-197" style="edgeStyle=orthogonalEdgeStyle;rounded=0;orthogonalLoop=1;jettySize=auto;html=1;entryX=0.5;entryY=1;entryDx=0;entryDy=0;" edge="1" parent="1" source="B3hCheoWp8zwCmhWulEi-196" target="B3hCheoWp8zwCmhWulEi-192">
          <mxGeometry relative="1" as="geometry" />
        </mxCell>
        <mxCell id="B3hCheoWp8zwCmhWulEi-196" value="i= i+1" style="rounded=0;whiteSpace=wrap;html=1;" vertex="1" parent="1">
          <mxGeometry x="310" y="550" width="170" height="30" as="geometry" />
        </mxCell>
      </root>
    </mxGraphModel>
  </diagram>
</mxfile>
